<svg width="35" height="35" viewBox="0 0 35 35" fill="none" xmlns="http://www.w3.org/2000/svg">
<path d="M32.0396 26.7312C32.0396 27.2562 31.9229 27.7958 31.675 28.3208C31.4271 28.8458 31.1063 29.3417 30.6834 29.8083C29.9688 30.5958 29.1813 31.1646 28.2917 31.5292C27.4167 31.8937 26.4688 32.0833 25.4479 32.0833C23.9604 32.0833 22.3709 31.7333 20.6938 31.0187C19.0167 30.3042 17.3396 29.3417 15.6771 28.1312C13.9827 26.8918 12.3837 25.5269 10.8938 24.0479C9.41906 22.5633 8.05892 20.9692 6.82502 19.2792C5.62919 17.6167 4.66669 15.9542 3.96669 14.3062C3.26669 12.6437 2.91669 11.0542 2.91669 9.53749C2.91669 8.54582 3.09169 7.59791 3.44169 6.72291C3.79169 5.83332 4.34585 5.01666 5.11877 4.28749C6.0521 3.36874 7.07294 2.91666 8.1521 2.91666C8.56044 2.91666 8.96877 3.00416 9.33335 3.17916C9.71252 3.35416 10.0479 3.61666 10.3104 3.99582L13.6938 8.76457C13.9563 9.12916 14.1459 9.46457 14.2771 9.78541C14.4084 10.0917 14.4813 10.3979 14.4813 10.675C14.4813 11.025 14.3792 11.375 14.175 11.7104C13.9854 12.0458 13.7084 12.3958 13.3584 12.7458L12.25 13.8979C12.0896 14.0583 12.0167 14.2479 12.0167 14.4812C12.0167 14.5979 12.0313 14.7 12.0604 14.8167C12.1042 14.9333 12.1479 15.0208 12.1771 15.1083C12.4396 15.5896 12.8917 16.2167 13.5334 16.975C14.1896 17.7333 14.8896 18.5062 15.6479 19.2792C16.4354 20.0521 17.1938 20.7667 17.9667 21.4229C18.725 22.0646 19.3521 22.5021 19.8479 22.7646C19.9209 22.7937 20.0084 22.8375 20.1104 22.8812C20.2271 22.925 20.3438 22.9396 20.475 22.9396C20.7229 22.9396 20.9125 22.8521 21.0729 22.6917L22.1813 21.5979C22.5459 21.2333 22.8959 20.9562 23.2313 20.7812C23.5667 20.5771 23.9021 20.475 24.2667 20.475C24.5438 20.475 24.8354 20.5333 25.1563 20.6646C25.4771 20.7958 25.8125 20.9854 26.1771 21.2333L31.0042 24.6604C31.3834 24.9229 31.6459 25.2292 31.8063 25.5937C31.9521 25.9583 32.0396 26.3229 32.0396 26.7312Z" stroke="black" stroke-width="1.5" stroke-miterlimit="10"/>
</svg>
