<svg width="35" height="35" viewBox="0 0 35 35" fill="none" xmlns="http://www.w3.org/2000/svg">
<path d="M32.0834 21.875C32.0834 27.5188 27.5188 32.0833 21.875 32.0833L23.4063 29.5313M2.91669 13.125C2.91669 7.48126 7.48127 2.91667 13.125 2.91667L11.5938 5.46875M32.0834 7.51042V12.9063C32.0834 16.1875 30.7709 17.5 27.4896 17.5H23.5521C20.2709 17.5 18.9584 16.1875 18.9584 12.9063V7.51042C18.9584 4.22917 20.2709 2.91667 23.5521 2.91667H27.4896C30.7709 2.91667 32.0834 4.22917 32.0834 7.51042ZM16.0417 22.0938V27.4896C16.0417 30.7708 14.7292 32.0833 11.4479 32.0833H7.51044C4.22919 32.0833 2.91669 30.7708 2.91669 27.4896V22.0938C2.91669 18.8125 4.22919 17.5 7.51044 17.5H11.4479C14.7292 17.5 16.0417 18.8125 16.0417 22.0938Z" stroke="inherit" stroke-width="1.5" stroke-linecap="round" stroke-linejoin="round"/>
</svg>
