<svg width="40" height="40" viewBox="0 0 40 40" fill="none" xmlns="http://www.w3.org/2000/svg">
<path d="M20.0334 4.85001C14.5167 4.85001 10.0334 9.33334 10.0334 14.85V19.6667C10.0334 20.6833 9.60002 22.2333 9.08336 23.1L7.16669 26.2833C5.98336 28.25 6.80002 30.4333 8.96669 31.1667C16.15 33.5667 23.9 33.5667 31.0834 31.1667C33.1 30.5 33.9834 28.1167 32.8834 26.2833L30.9667 23.1C30.4667 22.2333 30.0334 20.6833 30.0334 19.6667V14.85C30.0334 9.35001 25.5334 4.85001 20.0334 4.85001Z" stroke="black" stroke-width="1.5" stroke-miterlimit="10" stroke-linecap="round"/>
<path d="M23.1167 5.33334C21.1012 4.75932 18.9655 4.75932 16.95 5.33334C17.4333 4.1 18.6333 3.23334 20.0333 3.23334C21.4333 3.23334 22.6333 4.1 23.1167 5.33334Z" stroke="black" stroke-width="1.5" stroke-miterlimit="10" stroke-linecap="round" stroke-linejoin="round"/>
<path d="M25.0333 31.7667C25.0333 34.5167 22.7833 36.7667 20.0333 36.7667C18.6667 36.7667 17.4 36.2 16.5 35.3C15.5636 34.3622 15.0363 33.0919 15.0333 31.7667" stroke="black" stroke-width="1.5" stroke-miterlimit="10"/>
</svg>
