<svg width="35" height="35" viewBox="0 0 35 35" fill="none" xmlns="http://www.w3.org/2000/svg">
<path d="M32.0833 8.75V12.2792C32.0833 14.5833 30.625 16.0417 28.3208 16.0417H23.3333V5.84792C23.3333 4.22917 24.6604 2.91667 26.2791 2.91667C27.8687 2.93125 29.3271 3.57292 30.3771 4.62292C31.4271 5.6875 32.0833 7.14583 32.0833 8.75Z" stroke="black" stroke-width="1.5" stroke-miterlimit="10" stroke-linecap="round" stroke-linejoin="round"/>
<path d="M2.91669 10.2083V30.625C2.91669 31.8354 4.28752 32.5208 5.25002 31.7917L7.74377 29.925C8.3271 29.4875 9.14377 29.5458 9.66877 30.0708L12.0896 32.5063C12.6584 33.075 13.5917 33.075 14.1604 32.5063L16.6104 30.0562C17.1209 29.5458 17.9375 29.4875 18.5063 29.925L21 31.7917C21.9625 32.5062 23.3334 31.8208 23.3334 30.625V5.83333C23.3334 4.22917 24.6459 2.91667 26.25 2.91667H8.75002C4.37502 2.91667 2.91669 5.52708 2.91669 8.75V10.2083Z" stroke="black" stroke-width="1.5" stroke-miterlimit="10" stroke-linecap="round" stroke-linejoin="round"/>
<path d="M13.125 18.9729H17.5M13.125 13.1396H17.5" stroke="black" stroke-width="1.5" stroke-linecap="round" stroke-linejoin="round"/>
<path d="M8.74414 18.9583H8.75727M8.74414 13.125H8.75727" stroke="black" stroke-width="2" stroke-linecap="round" stroke-linejoin="round"/>
</svg>
